ffmpeg version N-86691-gc885356 Copyright (c) 2000-2017 the FFmpeg developers
  built with gcc 7.1.0 (GCC)
  configuration: --enable-gpl --enable-version3 --enable-cuda --enable-cuvid --enable-d3d11va --enable-dxva2 --enable-libmfx --enable-nvenc --enable-avisynth --enable-bzlib --enable-fontconfig --enable-frei0r --enable-gnutls --enable-iconv --enable-libass --enable-libbluray --enable-libbs2b --enable-libcaca --enable-libfreetype --enable-libgme --enable-libgsm --enable-libilbc --enable-libmodplug --enable-libmp3lame --enable-libopencore-amrnb --enable-libopencore-amrwb --enable-libopenh264 --enable-libopenjpeg --enable-libopus --enable-librtmp --enable-libsnappy --enable-libsoxr --enable-libspeex --enable-libtheora --enable-libtwolame --enable-libvidstab --enable-libvo-amrwbenc --enable-libvorbis --enable-libvpx --enable-libwavpack --enable-libwebp --enable-libx264 --enable-libx265 --enable-libxavs --enable-libxvid --enable-libzimg --enable-lzma --enable-zlib
  libavutil      55. 67.100 / 55. 67.100
  libavcodec     57.100.103 / 57.100.103
  libavformat    57. 75.100 / 57. 75.100
  libavdevice    57.  7.100 / 57.  7.100
  libavfilter     6. 94.100 /  6. 94.100
  libswscale      4.  7.101 /  4.  7.101
  libswresample   2.  8.100 /  2.  8.100
  libpostproc    54.  6.100 / 54.  6.100
Input #0, mov,mp4,m4a,3gp,3g2,mj2, from 'C:\xampp\htdocs\highq/wp-content/uploads/2017/07/11920Punjabis-In-Traffic-Dont-Mesh-With-Panjabi.mp4':
  Metadata:
    major_brand     : isom
    minor_version   : 512
    compatible_brands: isomiso2avc1mp41
    title           : 2291027514278473
    encoder         : Lavf54.29.104
  Duration: 00:00:42.78, start: 0.000000, bitrate: 421 kb/s
    Stream #0:0(und): Video: h264 (High) (avc1 / 0x31637661), yuv420p, 400x400 [SAR 1:1 DAR 1:1], 397 kb/s, 29.97 fps, 29.97 tbr, 2997 tbn, 59.94 tbc (default)
    Metadata:
      handler_name    : VideoHandler
    Stream #0:1(eng): Audio: aac (HE-AACv2) (mp4a / 0x6134706D), 44100 Hz, stereo, fltp, 19 kb/s (default)
    Metadata:
      handler_name    : SoundHandler
Stream mapping:
  Stream #0:0 -> #0:0 (h264 (native) -> h264 (libx264))
  Stream #0:1 -> #0:1 (copy)
Press [q] to stop, [?] for help
[libx264 @ 00000000005f9460] using SAR=1/1
[libx264 @ 00000000005f9460] using cpu capabilities: MMX2 SSE2Fast SSSE3 SSE4.2 AVX FMA3 BMI2 AVX2
[libx264 @ 00000000005f9460] profile Constrained Baseline, level 2.1
[libx264 @ 00000000005f9460] 264 - core 152 r2851 ba24899 - H.264/MPEG-4 AVC codec - Copyleft 2003-2017 - http://www.videolan.org/x264.html - options: cabac=0 ref=1 deblock=0:0:0 analyse=0:0 me=dia subme=0 psy=1 psy_rd=1.00:0.00 mixed_ref=0 me_range=16 chroma_me=1 trellis=0 8x8dct=0 cqm=0 deadzone=21,11 fast_pskip=1 chroma_qp_offset=0 threads=6 lookahead_threads=1 sliced_threads=0 nr=0 decimate=1 interlaced=0 bluray_compat=0 constrained_intra=0 bframes=0 weightp=0 keyint=250 keyint_min=25 scenecut=0 intra_refresh=0 rc=crf mbtree=0 crf=32.0 qcomp=0.60 qpmin=0 qpmax=69 qpstep=4 ip_ratio=1.40 aq=0
Output #0, mp4, to 'C:\xampp\htdocs\highq/wp-content/uploads/2017/07/ob_mp4_cc_59633d6a08c06.mp4':
  Metadata:
    major_brand     : isom
    minor_version   : 512
    compatible_brands: isomiso2avc1mp41
    title           : 2291027514278473
    encoder         : Lavf57.75.100
    Stream #0:0(und): Video: h264 (libx264) ([33][0][0][0] / 0x0021), yuv420p, 400x400 [SAR 1:1 DAR 1:1], q=-1--1, 29.97 fps, 11988 tbn, 29.97 tbc (default)
    Metadata:
      handler_name    : VideoHandler
      encoder         : Lavc57.100.103 libx264
    Side data:
      cpb: bitrate max/min/avg: 0/0/0 buffer size: 0 vbv_delay: -1
    Stream #0:1(eng): Audio: aac (HE-AACv2) ([64][0][0][0] / 0x0040), 44100 Hz, stereo, fltp, 19 kb/s (default)
    Metadata:
      handler_name    : SoundHandler
frame=  462 fps=0.0 q=37.0 size=     768kB time=00:00:15.51 bitrate= 405.6kbits/s speed=  31x    frame=  977 fps=943 q=34.0 size=    1792kB time=00:00:32.69 bitrate= 449.0kbits/s speed=31.6x    frame= 1271 fps=964 q=-1.0 Lsize=    2535kB time=00:00:42.39 bitrate= 489.7kbits/s speed=32.1x    
video:2405kB audio:104kB subtitle:0kB other streams:0kB global headers:0kB muxing overhead: 1.011891%
[libx264 @ 00000000005f9460] frame I:6     Avg QP:28.83  size: 10953
[libx264 @ 00000000005f9460] frame P:1265  Avg QP:33.27  size:  1895
[libx264 @ 00000000005f9460] mb I  I16..4: 100.0%  0.0%  0.0%
[libx264 @ 00000000005f9460] mb P  I16..4:  5.5%  0.0%  0.0%  P16..4: 43.1%  0.0%  0.0%  0.0%  0.0%    skip:51.3%
[libx264 @ 00000000005f9460] coded y,uvDC,uvAC intra: 37.1% 27.2% 5.4% inter: 14.7% 6.4% 0.1%
[libx264 @ 00000000005f9460] i16 v,h,dc,p: 36% 29% 24% 11%
[libx264 @ 00000000005f9460] i8c dc,h,v,p: 54% 22% 17%  7%
[libx264 @ 00000000005f9460] kb/s:464.51
